<?xml version="1.0" encoding="UTF-8" standalone="no"?>
<!-- Created with Inkscape (http://www.inkscape.org/) -->

<svg
   xmlns:dc="http://purl.org/dc/elements/1.1/"
   xmlns:cc="http://creativecommons.org/ns#"
   xmlns:rdf="http://www.w3.org/1999/02/22-rdf-syntax-ns#"
   xmlns:svg="http://www.w3.org/2000/svg"
   xmlns="http://www.w3.org/2000/svg"
   xmlns:inkscape="http://www.inkscape.org/namespaces/inkscape"
   version="1.1"
   width="136.25"
   height="48.75"
   id="svg2"
   xml:space="preserve"><metadata
     id="metadata8"><rdf:RDF><cc:Work
         rdf:about=""><dc:format>image/svg+xml</dc:format><dc:type
           rdf:resource="http://purl.org/dc/dcmitype/StillImage" /></cc:Work></rdf:RDF></metadata><defs
     id="defs6" /><g
     transform="matrix(1.25,0,0,-1.25,0,48.75)"
     id="g10"><g
       transform="scale(0.1,0.1)"
       id="g12"><path
         d="m 815.348,301.473 c 33.23,0 60.172,-26.942 60.172,-60.18 0,-33.227 -26.942,-60.172 -60.172,-60.172 -33.235,0 -60.18,26.945 -60.18,60.172 0,33.238 26.945,60.18 60.18,60.18 z m 0,-10.11 c 27.648,0 50.062,-22.414 50.062,-50.07 0,-27.648 -22.414,-50.066 -50.062,-50.066 -27.657,0 -50.075,22.418 -50.075,50.066 0,27.656 22.418,50.07 50.075,50.07 z m 0,-7.168 c 23.691,0 42.894,-19.203 42.894,-42.902 0,-23.691 -19.203,-42.895 -42.894,-42.895 -23.7,0 -42.903,19.204 -42.903,42.895 0,23.699 19.203,42.902 42.903,42.902"
         inkscape:connector-curvature="0"
         id="path14"
         style="fill:#b0b0b0;fill-opacity:1;fill-rule:evenodd;stroke:none" /><path
         d="m 18.707,60.0586 40.8086,0 c 8.6953,0 15.8477,2.4805 21.461,7.4414 5.6132,4.9609 8.4179,11.7656 8.4179,20.4062 0,18.6718 -9.957,28.0038 -29.8789,28.0038 l -40.8086,0 0,-55.8514 z m 0,-55.21876 -3.0312,0 0,114.27316 43.8398,0 c 10.4141,0 18.5039,-2.668 24.2696,-8 5.7656,-5.34 8.6484,-13.07 8.6484,-23.2068 0,-9.8164 -3.1641,-17.4414 -9.4844,-22.8867 -6.3203,-5.4414 -14.6367,-8.164 -24.9531,-8.164 l -39.2891,0 0,-52.01566 z m 90.981,57.93746 0,-57.93746 -3.032,0 0,114.27316 3.032,0 0,-53.1325 75.847,0 0,53.1325 3.035,0 0,-114.27316 -3.035,0 0,57.93746 -75.847,0 z M 255.426,5.32422 c 14.363,0 25.765,5.25388 34.211,15.75778 8.445,10.5118 12.664,24.1446 12.664,40.8946 0,16.7539 -4.219,30.3828 -12.664,40.8944 -8.446,10.508 -19.848,15.762 -34.211,15.762 -14.356,0 -25.762,-5.254 -34.203,-15.762 -8.442,-10.5116 -12.664,-24.1405 -12.664,-40.8944 0,-16.75 4.222,-30.3828 12.664,-40.8946 8.441,-10.5039 19.847,-15.75778 34.203,-15.75778 z m 0,116.51178 c 15.679,0 27.918,-5.707 36.715,-17.125 8.797,-11.4141 13.195,-25.6641 13.195,-42.7344 0,-17.0664 -4.398,-31.3125 -13.195,-42.7305 C 283.344,7.83203 271.105,2.12109 255.426,2.12109 c -15.672,0 -27.91,5.71094 -36.703,17.12501 -8.801,11.418 -13.2,25.6641 -13.2,42.7305 0,17.0703 4.399,31.3203 13.2,42.7344 8.793,11.418 21.031,17.125 36.703,17.125 z m 55.941,-5.926 0,3.203 81.004,0 0,-3.203 -38.988,0 0,-111.07016 -3.028,0 0,111.07016 -38.988,0 z M 448.465,5.32422 c 14.355,0 25.762,5.25388 34.203,15.75778 8.445,10.5118 12.668,24.1446 12.668,40.8946 0,16.7539 -4.223,30.3828 -12.668,40.8944 -8.441,10.508 -19.848,15.762 -34.203,15.762 -14.36,0 -25.766,-5.254 -34.211,-15.762 -8.442,-10.5116 -12.664,-24.1405 -12.664,-40.8944 0,-16.75 4.222,-30.3828 12.664,-40.8946 8.445,-10.5039 19.851,-15.75778 34.211,-15.75778 z m 0,116.51178 c 15.672,0 27.91,-5.707 36.703,-17.125 8.805,-11.4141 13.199,-25.6641 13.199,-42.7344 0,-17.0664 -4.394,-31.3125 -13.199,-42.7305 C 476.375,7.83203 464.137,2.12109 448.465,2.12109 c -15.68,0 -27.91,5.71094 -36.711,17.12501 -8.801,11.418 -13.195,25.6641 -13.195,42.7305 0,17.0703 4.394,31.3203 13.195,42.7344 8.801,11.418 21.031,17.125 36.711,17.125 z m 115.703,-66.7383 0,3.1992 45.055,0 0,-53.61721 -3.035,0 0,28.48831 C 603.254,23.5664 597.895,15.9922 590.109,10.4414 582.32,4.89844 573.172,2.12109 562.652,2.12109 c -16.179,0 -28.695,5.62891 -37.543,16.88671 -8.851,11.2578 -13.273,25.5781 -13.273,42.9688 0,17.289 4.574,31.582 13.726,42.8944 9.153,11.309 21.52,16.965 37.09,16.965 12.036,0 22.094,-3.469 30.188,-10.406 8.09,-6.934 12.996,-16.2698 14.711,-28.0081 l -3.031,0 c -1.922,10.7773 -6.598,19.3441 -14.032,25.6911 -7.433,6.348 -16.715,9.52 -27.836,9.52 -14.558,0 -26.172,-5.41 -34.812,-16.242 -8.649,-10.8285 -12.969,-24.3012 -12.969,-40.4144 0,-16.3243 4.195,-29.8477 12.59,-40.5704 8.391,-10.7226 20.273,-16.08198 35.644,-16.08198 12.137,0 22.356,4.15625 30.645,12.48438 8.293,8.3203 12.438,18.7734 12.438,31.3633 l 0,5.9258 -42.02,0 z m 67.469,6.5585 40.504,0 c 8.695,0 16.004,2.379 21.918,7.125 5.914,4.7461 8.875,11.8711 8.875,21.3633 0,8.3243 -2.352,14.6995 -7.055,19.1255 -4.703,4.429 -12.109,6.64 -22.223,6.64 l -42.019,0 0,-54.2538 z m 0,-56.81636 -3.035,0 0,114.27316 44.296,0 c 22.043,0 33.067,-9.761 33.067,-29.2849 0,-7.5781 -1.996,-13.9531 -5.992,-19.125 -3.993,-5.1758 -9.735,-8.6172 -17.215,-10.3242 8.594,-1.3867 14.308,-4.5664 17.14,-9.5234 2.832,-4.961 4.247,-12.4571 4.247,-22.4883 0,-5.0117 0.175,-9.7852 0.531,-14.3242 0.351,-4.53128 1.039,-7.60159 2.051,-9.20316 l -3.34,0 c -0.809,2.13672 -1.391,5.46876 -1.742,10.00396 -0.36,4.5351 -0.532,9.207 -0.532,14.0039 0,10.3515 -1.871,17.8711 -5.613,22.5664 -3.742,4.6953 -11.43,7.0429 -23.059,7.0429 l -40.804,0 0,-53.61716 z M 787.113,45.6523 761.297,115.91 734.246,45.6523 l 52.867,0 z m -53.929,-3.1992 -14.485,-37.61326 -3.519,0 43.992,114.27316 3.945,0 42.778,-114.27316 -3.336,0 -14.262,37.61326 -55.113,0 z m 86.175,17.6055 40.805,0 c 8.699,0 15.852,2.4805 21.465,7.4414 5.613,4.9609 8.418,11.7656 8.418,20.4062 0,18.6718 -9.961,28.0038 -29.883,28.0038 l -40.805,0 0,-55.8514 z m 0,-55.21876 -3.031,0 0,114.27316 43.836,0 c 10.418,0 18.504,-2.668 24.27,-8 5.765,-5.34 8.648,-13.07 8.648,-23.2068 0,-9.8164 -3.16,-17.4414 -9.48,-22.8867 -6.321,-5.4414 -14.637,-8.164 -24.954,-8.164 l -39.289,0 0,-52.01566 z m 90.981,57.93746 0,-57.93746 -3.031,0 0,114.27316 3.031,0 0,-53.1325 75.844,0 0,53.1325 3.039,0 0,-114.27316 -3.039,0 0,57.93746 -75.844,0 z m 173.5,56.3357 3.64,0 -43.84,-66.0974 0,-48.17576 -3.03,0 0,48.17576 -43.84,66.0974 3.79,0 41.54,-62.9255 41.74,62.9255"
         inkscape:connector-curvature="0"
         id="path16"
         style="fill:#000000;fill-opacity:1;fill-rule:nonzero;stroke:none" /><path
         d="m 335.754,166.293 c -3.863,-11.91 -7.859,-20.152 -11.984,-24.734 -4.125,-4.579 -9.797,-6.871 -17.016,-6.871 -2.832,0 -4.863,0.117 -6.09,0.347 -1.223,0.227 -2.992,0.801 -5.312,1.715 l 0,17.863 c 1.539,-0.605 3.121,-1.218 4.734,-1.832 1.609,-0.609 3.254,-0.914 4.926,-0.914 3.226,0 5.867,0.875 7.926,2.633 2.066,1.754 3.937,4.469 5.613,8.129 l 6.761,20.156 -39.628,117.711 18.554,0 29.196,-97.254 28.421,97.254 17.399,0 -43.5,-134.203 z m -81.195,179.316 16.429,0 0,-163.511 -16.429,0 0,163.511 z m -42.922,0 16.433,0 0,-163.511 -16.433,0 0,163.511 z m -35.375,-92.972 c 0,9.156 -2.774,17.015 -8.317,23.582 -5.543,6.566 -12.371,9.847 -20.492,9.847 -8.375,0 -15.238,-3.242 -20.59,-9.73 -5.347,-6.488 -8.019,-14.391 -8.019,-23.699 l 57.418,0 z m 15.851,-32.981 c -2.191,-12.98 -6.992,-22.941 -14.402,-29.886 -7.41,-6.95 -16.852,-10.422 -28.32,-10.422 -15.598,0 -27.493,5.648 -35.672,16.949 -8.184,11.297 -12.274,26.414 -12.274,45.344 0,17.859 4.379,32.597 13.141,44.203 8.766,11.597 20.043,17.402 33.832,17.402 15.855,0 27.359,-6.91 34.512,-20.726 7.152,-13.817 10.73,-29.504 10.73,-47.063 l -74.816,0 c 0,-11.145 2.609,-20.418 7.793,-27.824 5.191,-7.406 13.019,-11.106 23.554,-11.106 14.403,0 23.071,7.707 26.071,23.129 l 15.851,0 z M 7.48438,345.609 l 16.43362,0 0,-96.871 45.6211,51.758 22.0429,0 -39.6328,-43.055 42.5313,-75.343 -20.8789,0 -34.2188,61.832 -15.4648,-16.91 0,-44.922 -16.43362,0 0,163.511"
         inkscape:connector-curvature="0"
         id="path18"
         style="fill:#000000;fill-opacity:1;fill-rule:nonzero;stroke:none" /><path
         d="m 815.348,320.07 c 15.777,0 30.468,-4.64 42.793,-12.632 l -10.996,0 c -9.618,4.64 -20.411,7.238 -31.797,7.238 -11.399,0 -22.184,-2.598 -31.805,-7.238 l -10.996,0 c 12.324,7.992 27.015,12.632 42.801,12.632 z m 46.183,-142.59 c -12.976,-9.41 -28.929,-14.957 -46.183,-14.957 -17.262,0 -33.215,5.547 -46.192,14.957 l 9.953,0 c 10.692,-6.082 23.055,-9.558 36.239,-9.558 13.175,0 25.539,3.476 36.226,9.558 l 9.957,0"
         inkscape:connector-curvature="0"
         id="path20"
         style="fill:#b0b0b0;fill-opacity:1;fill-rule:evenodd;stroke:none" /><path
         d="m 618.676,346.18 439.344,0 c 7.56,0 13.76,-6.2 13.76,-13.766 l 0,-154.426 -4.1,4.11 0,150.316 c 0,5.313 -4.36,9.66 -9.66,9.66 l -443.45,0 4.106,4.106"
         inkscape:connector-curvature="0"
         id="path22"
         style="fill:#b0b0b0;fill-opacity:1;fill-rule:evenodd;stroke:none" /><path
         d="m 634.383,361.887 233.281,0 22.063,24.023 0.007,0 c 0.004,0.008 2.399,2.762 7.684,2.762 l 0,0.019 62.828,0 0,-0.019 c 5.289,0 7.68,-2.754 7.688,-2.762 l 0.023,0.02 22.102,-24.043 67.961,0 c 16.2,0 29.46,-13.266 29.46,-29.473 l 0,-170.129 -11.6,11.602 0,158.527 c 0,9.828 -8.04,17.867 -17.86,17.867 l -435.239,0 11.602,11.606"
         inkscape:connector-curvature="0"
         id="path24"
         style="fill:#b0b0b0;fill-opacity:1;fill-rule:evenodd;stroke:none" /><path
         d="m 893.547,363.551 70.7578,0 0,20.8281 -70.7578,0 0,-20.8281 z"
         inkscape:connector-curvature="0"
         id="path26"
         style="fill:#ffffff;fill-opacity:1;fill-rule:evenodd;stroke:none" /><path
         d="m 896.742,365.32 64.3711,0 0,17.2891 -64.3711,0 0,-17.2891 z"
         inkscape:connector-curvature="0"
         id="path28"
         style="fill:#b0b0b0;fill-opacity:1;fill-rule:evenodd;stroke:none" /><path
         d="m 902.445,366.852 52.9648,0 0,14.2227 -52.9648,0 0,-14.2227 z"
         inkscape:connector-curvature="0"
         id="path30"
         style="fill:#ffffff;fill-opacity:1;fill-rule:evenodd;stroke:none" /><path
         d="m 909.172,368.656 39.5117,0 0,10.6094 -39.5117,0 0,-10.6094 z"
         inkscape:connector-curvature="0"
         id="path32"
         style="fill:#b0b0b0;fill-opacity:1;fill-rule:evenodd;stroke:none" /><path
         d="m 914.148,369.992 29.5586,0 0,7.94141 -29.5586,0 0,-7.94141 z"
         inkscape:connector-curvature="0"
         id="path34"
         style="fill:#ffffff;fill-opacity:1;fill-rule:evenodd;stroke:none" /><path
         d="m 971.848,298.121 c 1.687,1.602 3.515,3.047 5.48,4.313 6.672,4.277 14.215,6.101 22.094,6.101 12.008,0 23.648,-3.324 30.818,-13.594 7,-10.003 8.89,-23.035 8.89,-34.98 l 0,-83.156 -27.02,0 0,85.449 c 0,4.91 -0.91,10.129 -4.16,13.988 -2.84,3.352 -6.56,4.535 -10.848,4.535 -7.196,0 -13.391,-2.101 -17.79,-8.047 -5.019,-6.792 -6.5,-15.492 -6.5,-23.761 l 0,-72.164 -27.015,0 0,128.929 26.051,0 0,-7.613 z m -336.317,-3.687 c 1.973,2.312 4.16,4.429 6.586,6.269 7.363,5.59 16.094,7.832 25.238,7.832 l 5.29,0 0,-31.195 -5.29,0 c -8.98,0 -17.875,-2.125 -23.312,-9.879 -6.234,-8.895 -7.547,-22.098 -7.547,-32.691 l 0,-57.965 -27.019,0 0,128.984 26.054,0 0,-11.355 z m -40.097,-92.602 c 0.875,0.07 1.789,0.375 2.582,0.711 l 7.355,3.117 0,-25.808 -2.199,-1.59 c -4.336,-3.129 -9.621,-4.203 -14.887,-4.203 -5.707,0 -10.762,2.05 -14.375,6.558 -1.285,1.606 -2.258,3.399 -2.98,5.309 -2.981,-2.656 -6.27,-4.918 -9.844,-6.723 -6.863,-3.457 -14.227,-5.144 -21.906,-5.144 -10.149,0 -19.821,2.601 -27.504,9.476 -8.293,7.422 -10.852,18.274 -10.852,29.02 0,10.558 2.082,22.308 10.586,29.468 7.172,6.039 16.031,9.516 25.129,11.438 8.547,1.801 17.195,3.187 25.645,5.434 4.015,1.066 6.117,3.207 6.117,7.476 0,3.641 -0.496,8.953 -3.828,11.172 -3.793,2.527 -8.641,3.234 -13.114,3.234 -5.117,0 -10.89,-0.8 -15.082,-3.972 -3.859,-2.914 -4.57,-8.684 -4.57,-13.18 l 0,-5.289 -27.012,0 0,5.289 c 0,13.016 3.446,25.687 13.965,34.125 9.692,7.781 21.406,10.785 33.668,10.785 10.418,0 21.195,-1.828 30.055,-7.613 10.133,-6.625 12.738,-18.86 12.738,-30.195 l 0,-60.918 c 0,-2.356 -0.078,-5.532 0.313,-7.977 z M 465.609,185.066 c -1.355,-1.168 -2.789,-2.23 -4.3,-3.191 -6.532,-4.168 -13.735,-6.445 -21.5,-6.445 -15.735,0 -28.45,6.437 -37.34,19.488 -9.242,13.582 -12.614,29.578 -12.614,45.805 0,16.386 3.547,32.16 11.957,46.328 8.786,14.801 22.579,21.484 39.543,21.484 7.317,0 14.239,-1.808 20.434,-5.754 1.496,-0.949 2.91,-2.019 4.238,-3.191 l 0,6.199 26.047,0 0,-113.617 c 0,-15.867 -2.359,-34.152 -12.433,-47.008 -9.653,-12.312 -24.137,-16.453 -39.254,-16.453 -11.532,0 -22.422,2.848 -31.992,9.402 -10.536,7.215 -14.672,18.266 -14.672,30.699 l 0,5.293 27.019,0 0,-5.293 c 0,-4.46 1.66,-7.585 5.52,-9.874 4.66,-2.762 9.687,-4.071 15.093,-4.071 7.793,0 14.04,2.539 18.2,9.371 3.707,6.098 5.367,13.657 6.054,20.828 z m 441.063,0.86 c -2.984,-2.656 -6.274,-4.918 -9.848,-6.723 -6.863,-3.457 -14.226,-5.144 -21.906,-5.144 -10.145,0 -19.816,2.601 -27.5,9.476 -8.301,7.422 -10.852,18.274 -10.852,29.02 0,10.558 2.082,22.308 10.586,29.468 7.172,6.039 16.032,9.516 25.129,11.438 8.547,1.801 17.196,3.187 25.637,5.434 4.023,1.066 6.125,3.207 6.125,7.476 0,3.641 -0.5,8.953 -3.832,11.172 -3.793,2.527 -8.641,3.234 -13.113,3.234 -5.114,0 -10.887,-0.8 -15.082,-3.972 -3.86,-2.914 -4.567,-8.684 -4.567,-13.18 l 0,-5.289 -27.011,0 0,5.289 c 0,13.016 3.441,25.687 13.96,34.125 9.692,7.781 21.407,10.785 33.664,10.785 10.422,0 21.204,-1.828 30.063,-7.613 10.133,-6.625 12.738,-18.86 12.738,-30.195 l 0,-60.918 c 0,-2.356 -0.082,-5.532 0.309,-7.977 0.879,0.07 1.793,0.379 2.582,0.711 l 7.355,3.109 0,-25.8 -2.199,-1.59 c -4.336,-3.129 -9.617,-4.203 -14.883,-4.203 -5.711,0 -10.765,2.05 -14.379,6.558 -1.285,1.606 -2.253,3.399 -2.976,5.309 z M 703.121,298.184 c 7.637,6.933 16.856,10.351 27.383,10.351 7.191,0 14.051,-1.711 20.101,-5.672 3.489,-2.281 6.27,-5.273 8.415,-8.793 2.71,3.227 5.847,6.047 9.398,8.348 6.312,4.098 13.328,6.117 20.855,6.117 10.266,0 20.477,-2.375 28.165,-9.555 8.21,-7.668 10.378,-19.312 10.378,-30.085 l 0,-92.09 -27.011,0 0,82.925 c 0,5.329 -0.571,12.11 -3.325,16.774 -2.156,3.644 -6.871,4.273 -10.722,4.273 -5.969,0 -10.981,-1.855 -14.949,-6.422 -4.473,-5.156 -5.852,-11.851 -5.852,-18.515 l 0,-79.035 -27.019,0 0,82.925 c 0,5.329 -0.586,12.09 -3.391,16.727 -2.16,3.563 -6.211,4.32 -10.07,4.32 -6.661,0 -11.707,-2.433 -15.399,-8.039 -3.277,-4.972 -5.988,-10.836 -5.988,-16.898 l 0,-79.035 -27.016,0 0,129.425 26.047,0 0,-8.046 z m -134.82,-63.559 c -2.145,-0.699 -4.363,-1.215 -6.574,-1.621 -5.911,-1.09 -11.821,-2.195 -17.723,-3.316 -4.149,-0.793 -8.527,-2.266 -11.75,-5.086 -2.891,-2.52 -3.445,-7.063 -3.445,-10.672 0,-3.266 0.574,-6.961 3.351,-9.067 3.078,-2.332 6.977,-3.047 10.758,-3.047 7.016,0 13.898,1.582 18.836,6.895 3.797,4.086 6.547,8.898 6.547,14.605 l 0,11.309 z m -103.047,9.074 c 0,9.457 -1.594,19.082 -6.277,27.41 -3.762,6.68 -9.227,9.668 -16.848,9.668 -7.832,0 -13.547,-3.062 -17.606,-9.804 -5.043,-8.379 -6.683,-18.305 -6.683,-27.961 0,-10.071 1.551,-20.379 6.105,-29.457 3.551,-7.071 8.918,-10.367 16.832,-10.367 8.196,0 13.856,3.488 17.785,10.652 4.989,9.101 6.692,19.578 6.692,29.859 z m 438.789,-9.074 c -2.148,-0.699 -4.363,-1.215 -6.578,-1.621 -5.91,-1.09 -11.817,-2.195 -17.723,-3.316 -4.144,-0.793 -8.523,-2.266 -11.746,-5.086 -2.891,-2.52 -3.445,-7.063 -3.445,-10.672 0,-3.27 0.57,-6.961 3.351,-9.067 3.071,-2.332 6.973,-3.047 10.758,-3.047 7.016,0 13.895,1.582 18.836,6.895 3.793,4.086 6.547,8.898 6.547,14.605 l 0,11.309"
         inkscape:connector-curvature="0"
         id="path36"
         style="fill:#ffffff;fill-opacity:1;fill-rule:evenodd;stroke:none" /><path
         d="m 970.875,295.766 c 2.066,2.207 4.383,4.183 6.98,5.847 6.508,4.18 13.868,5.953 21.567,5.953 11.698,0 23.048,-3.203 30.028,-13.183 6.87,-9.824 8.7,-22.695 8.7,-34.422 l 0,-82.184 -25.07,0 0,84.477 c 0,5.156 -0.97,10.57 -4.39,14.617 -3.01,3.567 -6.99,4.875 -11.588,4.875 -7.543,0 -13.997,-2.266 -18.567,-8.437 -5.156,-6.973 -6.691,-15.852 -6.691,-24.34 l 0,-71.192 -25.074,0 0,126.989 24.105,0 0,-9 z m -336.32,-4.071 c 2.363,3.086 5.062,5.891 8.148,8.235 7.192,5.457 15.711,7.636 24.652,7.636 l 4.321,0 0,-29.254 -4.321,0 c -9.363,0 -18.496,-2.289 -24.109,-10.292 -6.367,-9.09 -7.723,-22.473 -7.723,-33.25 l 0,-56.993 -25.07,0 0,127.039 24.102,0 0,-13.121 z M 571.367,187.641 c -3.168,-3 -6.73,-5.559 -10.719,-7.571 -6.73,-3.39 -13.929,-5.043 -21.468,-5.043 -9.91,0 -19.356,2.52 -26.852,9.231 -8.086,7.226 -10.527,17.84 -10.527,28.297 0,10.238 1.972,21.761 10.238,28.726 7.043,5.938 15.766,9.34 24.699,11.227 8.532,1.801 17.278,3.207 25.692,5.445 4.484,1.192 6.84,3.731 6.84,8.418 0,4.004 -0.59,9.535 -4.258,11.981 -3.965,2.636 -8.981,3.394 -13.653,3.394 -5.339,0 -11.293,-0.859 -15.668,-4.16 -4.148,-3.137 -4.953,-9.129 -4.953,-13.961 l 0,-4.32 -25.074,0 0,4.32 c 0,12.73 3.332,25.129 13.602,33.371 9.507,7.633 21.011,10.57 33.062,10.57 10.223,0 20.824,-1.781 29.527,-7.461 9.829,-6.421 12.293,-18.386 12.293,-29.378 l 0,-60.918 c 0,-2.192 -0.046,-6.555 0.477,-8.946 0.164,-0.015 0.324,-0.015 0.426,-0.015 1.125,0 2.312,0.363 3.344,0.8 l 6.003,2.543 0,-23.847 -1.793,-1.293 c -4.167,-3.008 -9.261,-4.024 -14.32,-4.024 -5.426,0 -10.195,1.93 -13.617,6.2 -1.527,1.906 -2.586,4.101 -3.301,6.414 z m -2.097,48.351 c -2.543,-0.933 -5.215,-1.574 -7.719,-2.039 -5.914,-1.082 -11.821,-2.187 -17.727,-3.316 -4.324,-0.817 -8.847,-2.367 -12.211,-5.305 -3.133,-2.734 -3.773,-7.484 -3.773,-11.402 0,-3.61 0.687,-7.532 3.734,-9.84 3.25,-2.469 7.34,-3.242 11.344,-3.242 7.316,0 14.426,1.683 19.551,7.203 3.969,4.277 6.801,9.312 6.801,15.265 l 0,12.676 z M 466.777,187.465 c -1.789,-1.77 -3.785,-3.367 -5.992,-4.774 -6.383,-4.07 -13.398,-6.293 -20.976,-6.293 -15.426,0 -27.832,6.293 -36.536,19.067 -9.132,13.418 -12.445,29.226 -12.445,45.258 0,16.218 3.492,31.804 11.82,45.836 8.59,14.472 22.047,21.007 38.707,21.007 7.141,0 13.879,-1.761 19.911,-5.601 2.117,-1.348 4.023,-2.903 5.738,-4.629 l 0,7.48 24.101,0 0,-112.644 c 0,-15.598 -2.3,-33.734 -12.23,-46.406 -9.445,-12.055 -23.648,-16.082 -38.488,-16.082 -11.348,0 -22.039,2.793 -31.442,9.226 -10.269,7.035 -14.25,17.793 -14.25,29.902 l 0,4.321 25.071,0 0,-4.321 c 0,-4.812 1.843,-8.25 6.004,-10.707 4.804,-2.847 9.996,-4.21 15.585,-4.21 8.172,0 14.707,2.738 19.024,9.835 4.152,6.821 5.844,15.485 6.398,23.735 z m -0.55,56.234 c 0,9.633 -1.629,19.406 -6.407,27.887 -3.929,6.98 -9.711,10.16 -17.691,10.16 -8.18,0 -14.207,-3.246 -18.434,-10.273 -5.14,-8.535 -6.828,-18.618 -6.828,-28.461 0,-10.223 1.582,-20.676 6.211,-29.891 3.719,-7.402 9.418,-10.902 17.699,-10.902 8.547,0 14.532,3.672 18.633,11.152 5.074,9.258 6.817,19.879 6.817,30.328 z m 440.878,-56.058 c -3.164,-3 -6.726,-5.559 -10.714,-7.571 -6.735,-3.39 -13.93,-5.043 -21.473,-5.043 -9.91,0 -19.356,2.52 -26.856,9.231 -8.078,7.226 -10.519,17.84 -10.519,28.297 0,10.238 1.973,21.761 10.23,28.726 7.051,5.938 15.766,9.34 24.707,11.227 8.528,1.801 17.274,3.207 25.688,5.445 4.484,1.192 6.844,3.731 6.844,8.418 0,4.004 -0.594,9.535 -4.262,11.981 -3.961,2.636 -8.98,3.394 -13.652,3.394 -5.336,0 -11.289,-0.859 -15.664,-4.16 -4.153,-3.137 -4.954,-9.125 -4.954,-13.961 l 0,-4.32 -25.074,0 0,4.32 c 0,12.73 3.332,25.129 13.602,33.371 9.508,7.633 21.008,10.57 33.054,10.57 10.227,0 20.829,-1.781 29.532,-7.461 9.828,-6.421 12.297,-18.386 12.297,-29.378 l 0,-60.918 c 0,-2.192 -0.047,-6.563 0.472,-8.946 0.164,-0.015 0.325,-0.015 0.426,-0.015 1.129,0 2.313,0.363 3.344,0.8 l 6.004,2.54 0,-23.844 -1.789,-1.293 c -4.172,-3.008 -9.266,-4.024 -14.321,-4.024 -5.425,0 -10.195,1.93 -13.621,6.2 -1.523,1.906 -2.586,4.101 -3.301,6.414 z m -2.093,48.351 c -2.547,-0.933 -5.219,-1.574 -7.723,-2.039 -5.914,-1.082 -11.824,-2.187 -17.727,-3.316 -4.32,-0.817 -8.847,-2.367 -12.207,-5.305 -3.132,-2.734 -3.773,-7.484 -3.773,-11.402 0,-3.61 0.688,-7.532 3.73,-9.84 3.254,-2.469 7.344,-3.242 11.348,-3.242 7.313,0 14.422,1.683 19.547,7.203 3.973,4.277 6.805,9.312 6.805,15.265 l 0,12.676 z m -202.86,59.914 c 7.371,7.43 16.746,11.66 28.352,11.66 7.008,0 13.68,-1.66 19.57,-5.515 3.836,-2.516 6.707,-5.852 8.809,-9.684 2.824,3.574 6.156,6.699 10.058,9.235 6.161,3.996 12.989,5.964 20.332,5.964 10.008,0 20,-2.289 27.5,-9.296 8.004,-7.473 10.075,-18.895 10.075,-29.375 l 0,-91.118 -25.075,0 0,81.953 c 0,5.493 -0.601,12.434 -3.461,17.27 -2.351,3.98 -7.304,4.746 -11.554,4.746 -6.27,0 -11.543,-1.98 -15.68,-6.75 -4.637,-5.344 -6.098,-12.246 -6.098,-19.156 l 0,-78.063 -25.074,0 0,81.953 c 0,5.5 -0.617,12.415 -3.531,17.235 -2.34,3.871 -6.645,4.781 -10.898,4.781 -7,0 -12.34,-2.601 -16.207,-8.473 -3.387,-5.136 -6.157,-11.171 -6.157,-17.433 l 0,-78.063 -25.07,0 0,127.485 24.109,0 0,-9.356"
         inkscape:connector-curvature="0"
         id="path38"
         style="fill:#ffffff;fill-opacity:1;fill-rule:evenodd;stroke:none" /><path
         d="m 951.09,300.445 15.465,0 0,-18.726 c 3.609,7.328 8.156,12.746 13.633,16.258 5.476,3.511 11.886,5.269 19.234,5.269 12.378,0 21.198,-3.781 26.488,-11.336 5.29,-7.562 7.92,-18.207 7.92,-31.949 l 0,-77.863 -16.43,0 0,80.156 c 0,7.324 -1.8,13.129 -5.42,17.402 -3.6,4.278 -8.57,6.41 -14.878,6.41 -9.668,0 -17.016,-3.394 -22.04,-10.187 -5.027,-6.793 -7.539,-15.766 -7.539,-26.91 l 0,-66.871 -16.433,0 0,118.347"
         inkscape:connector-curvature="0"
         id="path40"
         style="fill:#5e8487;fill-opacity:1;fill-rule:nonzero;stroke:none" /><path
         d="m 614.773,300.496 15.461,0 0,-24.961 c 4.125,9.465 9.153,16.449 15.086,20.953 5.926,4.504 13.274,6.758 22.035,6.758 l 0,-20.613 c -12.757,0 -21.972,-4.043 -27.648,-12.137 -5.664,-8.09 -8.504,-20 -8.504,-35.726 l 0,-52.672 -16.43,0 0,118.398 z M 600.078,182.555 c -2.965,-2.137 -6.898,-3.207 -11.793,-3.207 -4.383,0 -7.797,1.527 -10.246,4.578 -2.449,3.058 -3.676,7.636 -3.676,13.742 -4.383,-6.106 -9.601,-10.684 -15.656,-13.742 -6.062,-3.051 -12.566,-4.578 -19.527,-4.578 -9.926,0 -17.918,2.714 -23.973,8.129 -6.059,5.421 -9.086,13.781 -9.086,25.078 0,12.062 2.899,20.539 8.699,25.422 5.801,4.882 13.403,8.324 22.809,10.304 9.414,1.985 18.051,3.817 25.91,5.496 6.699,2.141 10.051,6.336 10.051,12.594 0,7.637 -2.059,12.824 -6.184,15.578 -4.125,2.746 -9.472,4.117 -16.047,4.117 -7.738,0 -13.824,-1.675 -18.273,-5.035 -4.445,-3.359 -6.668,-9.16 -6.668,-17.406 l -16.434,0 c 0,13.59 3.996,23.59 11.989,30 7.992,6.414 18.109,9.621 30.355,9.621 11.211,0 20.266,-2.254 27.16,-6.758 6.899,-4.504 10.344,-13.09 10.344,-25.761 l 0,-60.918 c 0,-5.348 0.258,-8.895 0.773,-10.653 0.516,-1.754 1.997,-2.629 4.446,-2.629 1.547,0 3.222,0.383 5.027,1.141 l 0,-15.113 z m -26.488,60.687 c -2.707,-2.289 -6.988,-3.969 -12.824,-5.035 -5.797,-1.07 -11.727,-2.176 -17.75,-3.324 -5.996,-1.145 -10.762,-3.242 -14.246,-6.297 -3.512,-3.055 -5.25,-7.941 -5.25,-14.656 0,-6.11 1.804,-10.532 5.445,-13.285 3.605,-2.747 8.281,-4.118 13.953,-4.118 9.859,0 17.398,2.86 22.715,8.582 5.32,5.731 7.957,11.793 7.957,18.207 l 0,19.926 z m -86.805,-51.07 c 0,-19.543 -3.769,-34.125 -11.308,-43.742 -7.539,-9.618 -19.239,-14.426 -35.09,-14.426 -11.082,0 -20.75,2.824 -28.996,8.473 -8.25,5.648 -12.375,14.429 -12.375,26.335 l 16.429,0 c 0,-6.41 2.711,-11.222 8.121,-14.429 5.414,-3.207 11.344,-4.809 17.789,-4.809 10.309,0 17.883,3.973 22.715,11.91 4.832,7.938 7.246,18.934 7.246,32.977 l 0,7.789 c -2.703,-6.871 -6.988,-12.176 -12.851,-15.918 -5.863,-3.742 -12.086,-5.613 -18.656,-5.613 -14.18,0 -25.164,5.73 -32.965,17.179 -7.797,11.454 -11.696,25.723 -11.696,42.825 0,16.488 3.739,31.031 11.211,43.625 7.477,12.601 19.145,18.898 34.996,18.898 6.575,0 12.434,-1.644 17.586,-4.926 5.161,-3.281 9.219,-8.207 12.184,-14.769 l 0.191,0 0,16.945 15.469,0 0,-108.324 z m -16.242,51.527 c 0,11.758 -2.316,21.758 -6.957,30.004 -4.645,8.246 -11.793,12.363 -21.457,12.363 -9.797,0 -17.176,-4.117 -22.137,-12.363 -4.965,-8.246 -7.445,-18.473 -7.445,-30.691 0,-12.364 2.223,-22.977 6.672,-31.832 4.449,-8.856 11.633,-13.282 21.558,-13.282 10.051,0 17.528,4.465 22.422,13.399 4.899,8.93 7.344,19.734 7.344,32.402"
         inkscape:connector-curvature="0"
         id="path42"
         style="fill:#5e8487;fill-opacity:1;fill-rule:nonzero;stroke:none" /><path
         d="m 909.332,243.242 c -2.711,-2.289 -6.996,-3.969 -12.824,-5.035 -5.801,-1.07 -11.727,-2.176 -17.754,-3.324 -5.996,-1.145 -10.758,-3.242 -14.242,-6.297 -3.512,-3.055 -5.25,-7.941 -5.25,-14.656 0,-6.11 1.8,-10.532 5.445,-13.285 3.605,-2.747 8.277,-4.118 13.953,-4.118 9.856,0 17.399,2.86 22.711,8.586 5.32,5.727 7.961,11.789 7.961,18.203 l 0,19.926 z m 26.484,-60.687 c -2.961,-2.141 -6.898,-3.207 -11.796,-3.207 -4.379,0 -7.797,1.527 -10.239,4.578 -2.449,3.058 -3.676,7.636 -3.676,13.742 -4.386,-6.106 -9.601,-10.684 -15.66,-13.742 -6.058,-3.051 -12.562,-4.578 -19.527,-4.578 -9.922,0 -17.918,2.714 -23.973,8.129 -6.054,5.421 -9.082,13.781 -9.082,25.078 0,12.062 2.899,20.539 8.699,25.418 5.797,4.886 13.403,8.328 22.809,10.308 9.41,1.985 18.047,3.817 25.91,5.496 6.699,2.141 10.051,6.336 10.051,12.594 0,7.637 -2.062,12.824 -6.187,15.578 -4.125,2.746 -9.473,4.117 -16.047,4.117 -7.735,0 -13.821,-1.675 -18.27,-5.035 -4.445,-3.359 -6.668,-9.16 -6.668,-17.406 l -16.433,0 c 0,13.59 3.996,23.59 11.988,30 7.984,6.414 18.105,9.621 30.347,9.621 11.219,0 20.27,-2.254 27.165,-6.758 6.894,-4.504 10.343,-13.09 10.343,-25.761 l 0,-60.918 c 0,-5.348 0.258,-8.895 0.774,-10.653 0.515,-1.754 1.996,-2.629 4.445,-2.629 1.551,0 3.223,0.383 5.027,1.141 l 0,-15.113"
         inkscape:connector-curvature="0"
         id="path44"
         style="fill:#5e8487;fill-opacity:1;fill-rule:nonzero;stroke:none" /><path
         d="m 682.363,300.941 15.469,0 0,-17.851 c 7.859,13.437 18.75,20.156 32.672,20.156 6.57,0 12.308,-1.601 17.203,-4.808 4.898,-3.208 8.316,-8.325 10.246,-15.348 3.481,6.414 7.93,11.375 13.344,14.887 5.41,3.511 11.402,5.269 17.976,5.269 10.571,0 18.754,-2.715 24.555,-8.133 5.797,-5.418 8.699,-14.156 8.699,-26.218 l 0,-86.797 -16.433,0 0,77.632 c 0,8.399 -1.352,14.887 -4.063,19.465 -2.703,4.582 -7.797,6.871 -15.273,6.871 -7.86,0 -14.176,-2.746 -18.946,-8.242 C 763.047,272.328 760.66,265 760.66,255.84 l 0,-73.742 -16.433,0 0,77.632 c 0,8.399 -1.387,14.887 -4.153,19.465 -2.773,4.582 -7.636,6.871 -14.597,6.871 -8.637,0 -15.239,-3.472 -19.821,-10.418 -4.574,-6.945 -6.863,-13.546 -6.863,-19.808 l 0,-73.742 -16.43,0 0,118.843"
         inkscape:connector-curvature="0"
         id="path46"
         style="fill:#5e8487;fill-opacity:1;fill-rule:nonzero;stroke:none" /></g></g></svg>